<svg width="24" height="32" viewBox="0 0 24 32" fill="none" xmlns="http://www.w3.org/2000/svg">
<path d="M11.9513 21.8333C12.2916 21.8333 12.5792 21.7158 12.8142 21.4808C13.0491 21.2459 13.1666 20.9583 13.1666 20.618C13.1666 20.2777 13.0491 19.9901 12.8142 19.7552C12.5792 19.5202 12.2916 19.4027 11.9513 19.4027C11.611 19.4027 11.3234 19.5202 11.0885 19.7552C10.8535 19.9901 10.736 20.2777 10.736 20.618C10.736 20.9583 10.8535 21.2459 11.0885 21.4808C11.3234 21.7158 11.611 21.8333 11.9513 21.8333ZM11.0763 18.0902H12.8749C12.8749 17.5555 12.9357 17.1342 13.0572 16.8263C13.1788 16.5185 13.5231 16.0972 14.0902 15.5624C14.5115 15.1411 14.8437 14.7401 15.0867 14.3593C15.3298 13.9785 15.4513 13.5208 15.4513 12.9861C15.4513 12.0786 15.1191 11.3819 14.4548 10.8958C13.7904 10.4097 13.0046 10.1666 12.0972 10.1666C11.1735 10.1666 10.4241 10.4097 9.84889 10.8958C9.27366 11.3819 8.87262 11.9652 8.64577 12.6458L10.2499 13.2777C10.331 12.9861 10.5132 12.6701 10.7968 12.3298C11.0804 11.9895 11.5138 11.8194 12.0972 11.8194C12.6157 11.8194 13.0046 11.9612 13.2638 12.2447C13.5231 12.5283 13.6527 12.8402 13.6527 13.1805C13.6527 13.5046 13.5555 13.8084 13.361 14.092C13.1666 14.3755 12.9235 14.6388 12.6319 14.8819C11.9189 15.5138 11.4814 15.9918 11.3194 16.3159C11.1573 16.64 11.0763 17.2314 11.0763 18.0902ZM11.9999 25.7222C10.655 25.7222 9.39114 25.467 8.20827 24.9565C7.0254 24.4461 5.99646 23.7534 5.12146 22.8784C4.24646 22.0034 3.55375 20.9745 3.04333 19.7916C2.53292 18.6087 2.27771 17.3449 2.27771 15.9999C2.27771 14.655 2.53292 13.3911 3.04333 12.2083C3.55375 11.0254 4.24646 9.99647 5.12146 9.12147C5.99646 8.24647 7.0254 7.55376 8.20827 7.04335C9.39114 6.53293 10.655 6.27772 11.9999 6.27772C13.3448 6.27772 14.6087 6.53293 15.7916 7.04335C16.9745 7.55376 18.0034 8.24647 18.8784 9.12147C19.7534 9.99647 20.4461 11.0254 20.9565 12.2083C21.4669 13.3911 21.7222 14.655 21.7222 15.9999C21.7222 17.3449 21.4669 18.6087 20.9565 19.7916C20.4461 20.9745 19.7534 22.0034 18.8784 22.8784C18.0034 23.7534 16.9745 24.4461 15.7916 24.9565C14.6087 25.467 13.3448 25.7222 11.9999 25.7222ZM11.9999 23.7777C14.1712 23.7777 16.0103 23.0243 17.5173 21.5173C19.0242 20.0104 19.7777 18.1712 19.7777 15.9999C19.7777 13.8286 19.0242 11.9895 17.5173 10.4826C16.0103 8.97564 14.1712 8.22217 11.9999 8.22217C9.82864 8.22217 7.98952 8.97564 6.48257 10.4826C4.97563 11.9895 4.22215 13.8286 4.22215 15.9999C4.22215 18.1712 4.97563 20.0104 6.48257 21.5173C7.98952 23.0243 9.82864 23.7777 11.9999 23.7777Z" fill="#137FEC"/>
</svg>
