<svg width="30" height="36" viewBox="0 0 30 36" fill="none" xmlns="http://www.w3.org/2000/svg">
<path d="M13.4375 17.375L22.2812 8.53125C22.5312 8.28125 22.8229 8.15625 23.1562 8.15625C23.4896 8.15625 23.7812 8.28125 24.0312 8.53125C24.2812 8.78125 24.4062 9.07292 24.4062 9.40625C24.4062 9.73958 24.2812 10.0312 24.0312 10.2812L15.2188 19.125L13.4375 17.375ZM16.5312 20.4688L24.4688 12.5C24.7188 12.25 25.0156 12.125 25.3594 12.125C25.7031 12.125 26 12.25 26.25 12.5C26.5 12.75 26.625 13.0469 26.625 13.3906C26.625 13.7344 26.5 14.0312 26.25 14.2812L18.3125 22.2188L16.5312 20.4688ZM6.59375 26.4062C4.69792 24.5104 3.75 22.2292 3.75 19.5625C3.75 16.8958 4.69792 14.6146 6.59375 12.7188L10.3438 8.96875L12.1875 10.8125C12.3333 10.9583 12.4583 11.1094 12.5625 11.2656C12.6667 11.4219 12.7708 11.5833 12.875 11.75L17.5 7.09375C17.75 6.84375 18.0469 6.71875 18.3906 6.71875C18.7344 6.71875 19.0312 6.84375 19.2812 7.09375C19.5312 7.34375 19.6562 7.64062 19.6562 7.98438C19.6562 8.32812 19.5312 8.625 19.2812 8.875L13.875 14.2812L11.2188 16.9062L11.8125 17.5C12.7708 18.4583 13.2292 19.6042 13.1875 20.9375C13.1458 22.2708 12.6354 23.4271 11.6562 24.4062L9.875 22.6562C10.3542 22.1771 10.6198 21.6094 10.6719 20.9531C10.724 20.2969 10.5104 19.7292 10.0312 19.25L8.5625 17.8125C8.3125 17.5625 8.1875 17.2656 8.1875 16.9219C8.1875 16.5781 8.3125 16.2812 8.5625 16.0312L10.3438 14.2812C10.5938 14.0312 10.7188 13.7344 10.7188 13.3906C10.7188 13.0469 10.5938 12.75 10.3438 12.5L8.34375 14.5C6.92708 15.9167 6.21875 17.6094 6.21875 19.5781C6.21875 21.5469 6.92708 23.2396 8.34375 24.6562C9.76042 26.0729 11.4583 26.7812 13.4375 26.7812C15.4167 26.7812 17.1146 26.0729 18.5312 24.6562L26 17.1562C26.25 16.9062 26.5469 16.7812 26.8906 16.7812C27.2344 16.7812 27.5312 16.9062 27.7812 17.1562C28.0312 17.4062 28.1562 17.7031 28.1562 18.0469C28.1562 18.3906 28.0312 18.6875 27.7812 18.9375L20.2812 26.4062C18.3854 28.3021 16.1042 29.25 13.4375 29.25C10.7708 29.25 8.48958 28.3021 6.59375 26.4062ZM21.25 31.7812V29.25C22.625 29.25 23.8021 28.7604 24.7812 27.7812C25.7604 26.8021 26.25 25.625 26.25 24.25H28.7812C28.7812 26.3333 28.0469 28.1094 26.5781 29.5781C25.1094 31.0469 23.3333 31.7812 21.25 31.7812ZM1.21875 11.75C1.21875 9.66667 1.95312 7.89062 3.42188 6.42188C4.89062 4.95312 6.66667 4.21875 8.75 4.21875V6.75C7.375 6.75 6.19792 7.23958 5.21875 8.21875C4.23958 9.19792 3.75 10.375 3.75 11.75H1.21875Z" fill="#FACC15"/>
</svg>
