<svg width="24" height="32" viewBox="0 0 24 32" fill="none" xmlns="http://www.w3.org/2000/svg">
<path d="M5.19444 24.75C4.65972 24.75 4.20197 24.5596 3.82118 24.1788C3.44039 23.798 3.25 23.3403 3.25 22.8056V9.19444C3.25 8.65972 3.44039 8.20197 3.82118 7.82118C4.20197 7.44039 4.65972 7.25 5.19444 7.25H18.8056C19.3403 7.25 19.798 7.44039 20.1788 7.82118C20.5596 8.20197 20.75 8.65972 20.75 9.19444V22.8056C20.75 23.3403 20.5596 23.798 20.1788 24.1788C19.798 24.5596 19.3403 24.75 18.8056 24.75H5.19444ZM5.19444 9.19444V22.8056H18.8056V9.19444H16.8611V16L14.4306 14.5417L12 16V9.19444H5.19444Z" fill="#137FEC"/>
</svg>
