<svg width="24" height="32" viewBox="0 0 24 32" fill="none" xmlns="http://www.w3.org/2000/svg">
<path d="M11.0277 20.8611H12.9722V15.0277H11.0277V20.8611ZM11.9999 13.0833C12.2754 13.0833 12.5063 12.9901 12.6927 12.8038C12.879 12.6174 12.9722 12.3865 12.9722 12.1111C12.9722 11.8356 12.879 11.6047 12.6927 11.4183C12.5063 11.232 12.2754 11.1388 11.9999 11.1388C11.7245 11.1388 11.4936 11.232 11.3072 11.4183C11.1209 11.6047 11.0277 11.8356 11.0277 12.1111C11.0277 12.3865 11.1209 12.6174 11.3072 12.8038C11.4936 12.9901 11.7245 13.0833 11.9999 13.0833ZM11.9999 25.7222C9.74763 25.155 7.88826 23.8628 6.42182 21.8454C4.95539 19.8281 4.22217 17.5879 4.22217 15.1249V9.19439L11.9999 6.27772L19.7777 9.19439V15.1249C19.7777 17.5879 19.0445 19.8281 17.5781 21.8454C16.1116 23.8628 14.2523 25.155 11.9999 25.7222ZM11.9999 23.6805C13.6851 23.1458 15.0786 22.0763 16.1805 20.4722C17.2824 18.868 17.8333 17.0856 17.8333 15.1249V10.5312L11.9999 8.34369L6.16661 10.5312V15.1249C6.16661 17.0856 6.71754 18.868 7.81939 20.4722C8.92124 22.0763 10.3148 23.1458 11.9999 23.6805Z" fill="#137FEC"/>
</svg>
