<svg width="24" height="32" viewBox="0 0 24 32" fill="none" xmlns="http://www.w3.org/2000/svg">
<path d="M12 23.7778C9.82868 23.7778 7.98956 23.0244 6.48262 21.5174C4.97567 20.0105 4.2222 18.1714 4.2222 16.0001C4.2222 13.8288 4.97567 11.9896 6.48262 10.4827C7.98956 8.97575 9.82868 8.22228 12 8.22228C13.118 8.22228 14.1875 8.45318 15.2083 8.91498C16.2291 9.37679 17.1041 10.0371 17.8333 10.8959V8.22228H19.7778V15.0278H12.9722V13.0834H17.0555C16.537 12.176 15.8281 11.463 14.9288 10.9445C14.0295 10.426 13.0532 10.1667 12 10.1667C10.3796 10.1667 9.00229 10.7339 7.86803 11.8681C6.73377 13.0024 6.16664 14.3797 6.16664 16.0001C6.16664 17.6204 6.73377 18.9977 7.86803 20.132C9.00229 21.2663 10.3796 21.8334 12 21.8334C13.2477 21.8334 14.3738 21.4769 15.3784 20.7639C16.3831 20.051 17.0879 19.1112 17.493 17.9445H19.5347C19.081 19.6621 18.1574 21.0637 16.7639 22.1494C15.3703 23.235 13.7824 23.7778 12 23.7778Z" fill="#4B5563"/>
</svg>
