<svg width="16" height="16" viewBox="0 0 16 16" fill="none" xmlns="http://www.w3.org/2000/svg">
<path d="M12.436 11.73L14.389 13.682C14.4801 13.7763 14.5305 13.9026 14.5293 14.0337C14.5282 14.1648 14.4756 14.2902 14.3829 14.3829C14.2902 14.4756 14.1648 14.5282 14.0337 14.5293C13.9026 14.5304 13.7763 14.48 13.682 14.389L11.729 12.436C10.4528 13.5294 8.80261 14.086 7.12481 13.989C5.44702 13.8921 3.872 13.149 2.73025 11.9158C1.5885 10.6826 0.968779 9.05507 1.00112 7.37478C1.03347 5.6945 1.71536 4.09205 2.90373 2.90369C4.09209 1.71532 5.69454 1.03343 7.37482 1.00108C9.05511 0.968739 10.6826 1.58846 11.9158 2.73021C13.149 3.87196 13.8921 5.44698 13.9891 7.12477C14.0861 8.80257 13.5294 10.4527 12.436 11.729V11.73ZM7.5 13C8.95869 13 10.3576 12.4205 11.3891 11.389C12.4205 10.3576 13 8.95865 13 7.49996C13 6.04127 12.4205 4.64232 11.3891 3.61087C10.3576 2.57942 8.95869 1.99996 7.5 1.99996C6.04131 1.99996 4.64236 2.57942 3.61091 3.61087C2.57946 4.64232 2 6.04127 2 7.49996C2 8.95865 2.57946 10.3576 3.61091 11.389C4.64236 12.4205 6.04131 13 7.5 13Z" fill="#ABB0BC"/>
</svg>
