<svg width="24" height="32" viewBox="0 0 24 32" fill="none" xmlns="http://www.w3.org/2000/svg">
<path d="M18.0995 21.1287L20.7849 23.8127C20.9101 23.9424 20.9794 24.1161 20.9778 24.2963C20.9763 24.4766 20.904 24.649 20.7765 24.7765C20.649 24.904 20.4766 24.9763 20.2963 24.9778C20.1161 24.9794 19.9424 24.9101 19.8127 24.7849L17.1274 22.0995C15.3725 23.603 13.1036 24.3683 10.7966 24.235C8.48964 24.1016 6.32399 23.0799 4.75408 21.3843C3.18418 19.6886 2.33206 17.4508 2.37654 15.1404C2.42101 12.83 3.35862 10.6266 4.99261 8.99261C6.62661 7.35862 8.82998 6.42101 11.1404 6.37654C13.4508 6.33206 15.6886 7.18418 17.3843 8.75408C19.0799 10.324 20.1016 12.4896 20.235 14.7966C20.3683 17.1036 19.603 19.3725 18.0995 21.1274V21.1287ZM11.3125 22.875C13.3182 22.875 15.2417 22.0782 16.66 20.66C18.0782 19.2417 18.875 17.3182 18.875 15.3125C18.875 13.3068 18.0782 11.3832 16.66 9.96499C15.2417 8.54675 13.3182 7.74999 11.3125 7.74999C9.30679 7.74999 7.38324 8.54675 5.96499 9.96499C4.54675 11.3832 3.74999 13.3068 3.74999 15.3125C3.74999 17.3182 4.54675 19.2417 5.96499 20.66C7.38324 22.0782 9.30679 22.875 11.3125 22.875Z" fill="#4B5563"/>
</svg>
