<svg width="216" height="216" viewBox="0 0 216 216" fill="none" xmlns="http://www.w3.org/2000/svg">
<g filter="url(#filter0_dd_2001_187)">
<rect x="12" y="2" width="192" height="192" rx="96" fill="white"/>
<path d="M97.1982 69.4578C94.4915 70.0332 91.8387 70.0602 89.2398 69.539C86.6408 69.0177 84.2737 68.0638 82.1384 66.6771C80.0031 65.2904 78.1688 63.516 76.6356 61.3537C75.1023 59.1915 74.048 56.757 73.4727 54.0503C72.8974 51.3436 72.8703 48.6908 73.3916 46.0918C73.9128 43.4929 74.8668 41.1258 76.2534 38.9905C77.6401 36.8552 79.4146 35.0209 81.5768 33.4876C83.7391 31.9544 86.1735 30.9001 88.8802 30.3248C91.5869 29.7494 94.2398 29.7224 96.8387 30.2436C99.4377 30.7649 101.805 31.7188 103.94 33.1055C106.075 34.4922 107.91 36.2666 109.443 38.4289C110.976 40.5911 112.03 43.0256 112.606 45.7323C113.181 48.439 113.208 51.0918 112.687 53.6908C112.166 56.2897 111.212 58.6568 109.825 60.7921C108.438 62.9274 106.664 64.7617 104.502 66.295C102.339 67.8282 99.9049 68.8825 97.1982 69.4578ZM94.389 65.8626L93.578 62.0471C92.5018 62.2759 91.4991 62.0885 90.5699 61.485C89.6406 60.8816 89.0616 60.0418 88.8329 58.9656L88.417 57.009L77.0287 49.6133C77.0557 50.2211 77.0908 50.8272 77.134 51.4315C77.1772 52.0358 77.2613 52.6315 77.386 53.2185C78.2248 57.1644 80.2558 60.3456 83.4791 62.7622C86.7025 65.1787 90.3391 66.2122 94.389 65.8626ZM106.829 58.0034C107.854 56.2517 108.525 54.3964 108.842 52.4375C109.158 50.4785 109.108 48.5208 108.692 46.5641C108.013 43.3682 106.504 40.6384 104.165 38.3747C101.827 36.111 99.0487 34.7076 95.8315 34.1644L95.9979 34.947C96.2266 36.0232 96.0393 37.0259 95.4358 37.9551C94.8324 38.8844 93.9926 39.4634 92.9164 39.6921L89.0031 40.5239L89.8349 44.4372C89.9527 44.9916 89.864 45.4962 89.5687 45.9509C89.2734 46.4057 88.8485 46.692 88.2941 46.8098L84.3808 47.6416L85.2126 51.5549L96.9525 49.0595C97.5069 48.9417 98.0115 49.0304 98.4662 49.3257C98.921 49.621 99.2073 50.0459 99.3251 50.6003L100.573 56.4702L102.529 56.0543C103.377 55.8741 104.197 55.9639 104.99 56.3238C105.782 56.6837 106.395 57.2436 106.829 58.0034Z" fill="#1380EC"/>
<path d="M39.6368 122.056L37.4797 118.735L55.0574 107.235L61.2204 116.725L73.5369 108.811L68.4496 107.73L69.2814 103.817L81.0213 106.312L78.5259 118.052L74.6126 117.22L75.6939 112.133L60.0351 122.302L53.8721 112.812L39.6368 122.056Z" fill="#D1D5DB"/>
<path d="M149.7 155.65L156 151.85L162.3 155.7L160.65 148.5L166.2 143.7L158.9 143.05L156 136.25L153.1 143L145.8 143.65L151.35 148.5L149.7 155.65ZM143.65 164L146.9 149.95L136 140.5L150.4 139.25L156 126L161.6 139.25L176 140.5L165.1 149.95L168.35 164L156 156.55L143.65 164Z" fill="#1380EC"/>
</g>
<defs>
<filter id="filter0_dd_2001_187" x="0" y="0" width="216" height="216" filterUnits="userSpaceOnUse" color-interpolation-filters="sRGB">
<feFlood flood-opacity="0" result="BackgroundImageFix"/>
<feColorMatrix in="SourceAlpha" type="matrix" values="0 0 0 0 0 0 0 0 0 0 0 0 0 0 0 0 0 0 127 0" result="hardAlpha"/>
<feMorphology radius="4" operator="erode" in="SourceAlpha" result="effect1_dropShadow_2001_187"/>
<feOffset dy="4"/>
<feGaussianBlur stdDeviation="3"/>
<feComposite in2="hardAlpha" operator="out"/>
<feColorMatrix type="matrix" values="0 0 0 0 0 0 0 0 0 0 0 0 0 0 0 0 0 0 0.1 0"/>
<feBlend mode="normal" in2="BackgroundImageFix" result="effect1_dropShadow_2001_187"/>
<feColorMatrix in="SourceAlpha" type="matrix" values="0 0 0 0 0 0 0 0 0 0 0 0 0 0 0 0 0 0 127 0" result="hardAlpha"/>
<feMorphology radius="3" operator="erode" in="SourceAlpha" result="effect2_dropShadow_2001_187"/>
<feOffset dy="10"/>
<feGaussianBlur stdDeviation="7.5"/>
<feComposite in2="hardAlpha" operator="out"/>
<feColorMatrix type="matrix" values="0 0 0 0 0 0 0 0 0 0 0 0 0 0 0 0 0 0 0.1 0"/>
<feBlend mode="normal" in2="effect1_dropShadow_2001_187" result="effect2_dropShadow_2001_187"/>
<feBlend mode="normal" in="SourceGraphic" in2="effect2_dropShadow_2001_187" result="shape"/>
</filter>
</defs>
</svg>
