<svg width="289" height="288" viewBox="0 0 289 288" fill="none" xmlns="http://www.w3.org/2000/svg">
<rect opacity="0.1" x="0.5" width="288" height="288" rx="144" fill="#197FE6"/>
<rect opacity="0.2" x="40.5" y="40" width="208" height="208" rx="104" fill="#197FE6"/>
<path d="M144.5 197.342C137.121 197.342 130.187 195.941 123.697 193.141C117.207 190.341 111.562 186.54 106.761 181.739C101.96 176.938 98.1594 171.293 95.359 164.803C92.5585 158.313 91.1583 151.379 91.1583 144C91.1583 136.621 92.5585 129.687 95.359 123.197C98.1594 116.707 101.96 111.062 106.761 106.261C111.562 101.46 117.207 97.6594 123.697 94.859C130.187 92.0586 137.121 90.6583 144.5 90.6583C151.879 90.6583 158.813 92.0586 165.303 94.859C171.793 97.6594 177.438 101.46 182.239 106.261C187.04 111.062 190.841 116.707 193.641 123.197C196.441 129.687 197.842 136.621 197.842 144C197.842 151.379 196.441 158.313 193.641 164.803C190.841 171.293 187.04 176.938 182.239 181.739C177.438 186.54 171.793 190.341 165.303 193.141C158.813 195.941 151.879 197.342 144.5 197.342ZM139.166 186.407V176.005C136.232 176.005 133.721 174.96 131.631 172.871C129.542 170.782 128.497 168.27 128.497 165.337V160.003L102.893 134.399C102.627 135.999 102.382 137.599 102.16 139.199C101.938 140.8 101.827 142.4 101.827 144C101.827 154.757 105.361 164.181 112.428 172.271C119.496 180.361 128.409 185.073 139.166 186.407ZM175.972 172.805C179.617 168.804 182.395 164.337 184.306 159.402C186.218 154.468 187.173 149.334 187.173 144C187.173 135.288 184.751 127.331 179.906 120.13C175.06 112.928 168.593 107.728 160.502 104.527V106.661C160.502 109.595 159.458 112.106 157.369 114.195C155.279 116.285 152.768 117.329 149.834 117.329H139.166V127.998C139.166 129.509 138.655 130.776 137.632 131.798C136.61 132.82 135.343 133.332 133.832 133.332H123.163V144H155.168C156.68 144 157.947 144.511 158.969 145.534C159.991 146.556 160.502 147.823 160.502 149.334V165.337H165.837C168.148 165.337 170.237 166.026 172.104 167.404C173.971 168.782 175.26 170.582 175.972 172.805Z" fill="#197FE6"/>
</svg>
