<svg width="30" height="36" viewBox="0 0 30 36" fill="none" xmlns="http://www.w3.org/2000/svg">
<path d="M3.75 28C3.0625 28 2.47396 27.7552 1.98438 27.2656C1.49479 26.776 1.25 26.1875 1.25 25.5C1.25 24.8125 1.49479 24.224 1.98438 23.7344C2.47396 23.2448 3.0625 23 3.75 23C3.875 23 3.98438 23 4.07812 23C4.17188 23 4.27083 23.0208 4.375 23.0625L10.0625 17.375C10.0208 17.2708 10 17.1719 10 17.0781C10 16.9844 10 16.875 10 16.75C10 16.0625 10.2448 15.474 10.7344 14.9844C11.224 14.4948 11.8125 14.25 12.5 14.25C13.1875 14.25 13.776 14.4948 14.2656 14.9844C14.7552 15.474 15 16.0625 15 16.75C15 16.7917 14.9792 17 14.9375 17.375L18.125 20.5625C18.2292 20.5208 18.3281 20.5 18.4219 20.5C18.5156 20.5 18.625 20.5 18.75 20.5C18.875 20.5 18.9844 20.5 19.0781 20.5C19.1719 20.5 19.2708 20.5208 19.375 20.5625L23.8125 16.125C23.7708 16.0208 23.75 15.9219 23.75 15.8281C23.75 15.7344 23.75 15.625 23.75 15.5C23.75 14.8125 23.9948 14.224 24.4844 13.7344C24.974 13.2448 25.5625 13 26.25 13C26.9375 13 27.526 13.2448 28.0156 13.7344C28.5052 14.224 28.75 14.8125 28.75 15.5C28.75 16.1875 28.5052 16.776 28.0156 17.2656C27.526 17.7552 26.9375 18 26.25 18C26.125 18 26.0156 18 25.9219 18C25.8281 18 25.7292 17.9792 25.625 17.9375L21.1875 22.375C21.2292 22.4792 21.25 22.5781 21.25 22.6719C21.25 22.7656 21.25 22.875 21.25 23C21.25 23.6875 21.0052 24.276 20.5156 24.7656C20.026 25.2552 19.4375 25.5 18.75 25.5C18.0625 25.5 17.474 25.2552 16.9844 24.7656C16.4948 24.276 16.25 23.6875 16.25 23C16.25 22.875 16.25 22.7656 16.25 22.6719C16.25 22.5781 16.2708 22.4792 16.3125 22.375L13.125 19.1875C13.0208 19.2292 12.9219 19.25 12.8281 19.25C12.7344 19.25 12.625 19.25 12.5 19.25C12.4583 19.25 12.25 19.2292 11.875 19.1875L6.1875 24.875C6.22917 24.9792 6.25 25.0781 6.25 25.1719C6.25 25.2656 6.25 25.375 6.25 25.5C6.25 26.1875 6.00521 26.776 5.51562 27.2656C5.02604 27.7552 4.4375 28 3.75 28ZM5 15.4688L4.21875 13.7812L2.53125 13L4.21875 12.2188L5 10.5312L5.78125 12.2188L7.46875 13L5.78125 13.7812L5 15.4688ZM18.75 14.25L17.5625 11.6875L15 10.5L17.5625 9.3125L18.75 6.75L19.9375 9.3125L22.5 10.5L19.9375 11.6875L18.75 14.25Z" fill="#3B82F6"/>
</svg>
